<svg width="38" height="38" viewBox="0 0 38 38" fill="none" xmlns="http://www.w3.org/2000/svg">
<g clip-path="url(#clip0_2055_35)">
<path d="M18.8464 34.8332C18.4379 34.8332 17.9787 34.7825 17.6209 34.4753L13.7386 32.1779C13.1765 31.8201 13.433 31.7678 13.6879 31.6665C14.4542 31.4622 14.6062 31.3087 15.4248 30.9002C15.4755 30.8495 15.6291 30.8495 15.7304 30.9508L18.6928 32.74C18.7451 32.7907 18.8986 32.7907 19.0506 32.74L30.6454 26.0488C30.6961 25.9966 30.8496 25.843 30.8496 25.7417V12.3087C30.8496 12.1551 30.7974 12.1044 30.6438 12.0031L19 5.41324C18.9493 5.36258 18.7941 5.36258 18.6421 5.41324L7.09963 12.1044C7.04738 12.1551 6.8938 12.3102 6.8938 12.4116V25.7432C6.8938 25.8952 6.94605 25.9459 7.09963 26.0488L10.2663 27.8364C12.0032 28.7041 13.0751 27.6828 13.0751 26.6093V13.5342C13.074 13.4869 13.0826 13.44 13.1002 13.3962C13.1178 13.3524 13.1441 13.3126 13.1776 13.2793C13.2111 13.2459 13.251 13.2198 13.2949 13.2023C13.3388 13.1849 13.3858 13.1766 13.433 13.1779H14.9134C14.9606 13.1766 15.0076 13.1849 15.0515 13.2023C15.0954 13.2198 15.1353 13.2459 15.1687 13.2793C15.2022 13.3126 15.2286 13.3524 15.2462 13.3962C15.2638 13.44 15.2723 13.4869 15.2712 13.5342V26.7122C15.2712 29.0112 14.0457 30.2874 11.9003 30.2874C11.1846 30.2874 10.7761 30.2874 9.24505 29.5717L6.23038 27.8871C5.85681 27.6673 5.54718 27.3537 5.33221 26.9774C5.11724 26.6011 5.0044 26.1751 5.00488 25.7417V12.3087C5.00488 11.441 5.41338 10.6747 6.23038 10.1632L17.7222 3.47366C18.0998 3.27294 18.5209 3.16797 18.9485 3.16797C19.3761 3.16797 19.7972 3.27294 20.1748 3.47366L31.768 10.2155C32.4836 10.624 32.9951 11.441 32.9951 12.3593V25.691C32.9951 26.5587 32.5865 27.325 31.768 27.8364L20.2255 34.4753C19.7156 34.7825 19.3071 34.8332 18.848 34.8332M28.1944 21.6551C28.1944 19.1534 26.5604 18.4884 22.9346 17.9786C19.3087 17.4687 19.0016 17.2629 19.0016 16.3952C19.0016 15.6796 19.3071 14.7612 21.9624 14.7612C24.3136 14.7612 25.1813 15.2711 25.5391 16.9051C25.5898 17.0587 25.6927 17.1109 25.897 17.1109H27.3774C27.4281 17.1109 27.5832 17.0587 27.5832 17.0587C27.5832 17.0587 27.6323 16.9051 27.6323 16.8544C27.4281 14.0456 25.5391 12.8201 21.9133 12.8201C18.5931 12.8201 16.6012 14.1976 16.6012 16.5488C16.6012 19.0505 18.5931 19.7662 21.7091 20.0717C25.4885 20.4296 25.7941 20.9917 25.7941 21.7073C25.7941 22.9835 24.7728 23.4949 22.3725 23.4949C19.3071 23.4949 18.6437 22.7286 18.4395 21.1959C18.3888 21.0423 18.2859 20.8903 18.0816 20.8903H16.7041C16.6568 20.8888 16.6096 20.897 16.5656 20.9143C16.5215 20.9316 16.4814 20.9577 16.4477 20.9911C16.4141 21.0244 16.3876 21.0643 16.3699 21.1082C16.3522 21.1521 16.3436 21.1992 16.3447 21.2466C16.3447 23.1877 17.3676 25.5374 22.4247 25.5374C26.1012 25.6403 28.1944 24.209 28.1944 21.6551Z" fill="white"/>
</g>
<defs>
<clipPath id="clip0_2055_35">
<rect width="38" height="38" fill="white"/>
</clipPath>
</defs>
</svg>
